<svg width="446.4pt" height="221.76pt" viewBox="0 0 446.4 221.76" xmlns="http://www.w3.org/2000/svg">
  <defs>
    <style type="text/css">
      path {
        fill: none;
        stroke: rgb(234, 89, 12);
        stroke-width: 1.5;
        stroke-linejoin: round;
        stroke-linecap: butt;
      }
    </style>
  </defs>
  <g>
    <path d="M 20.290909 102.382943 L 21.021455 102.271875 L 21.792587 101.916724 L 22.604304 101.284315 L 23.497193 100.289518 L 24.471254 98.856528 L 25.567073 96.824624 L 26.784649 94.065873 L 28.123983 90.451129 L 29.625661 85.719797 L 31.289682 79.710519 L 33.237804 71.79265 L 35.794714 60.376538 L 39.812716 42.425263 L 41.354979 36.613095 L 42.53197 32.977876 L 43.506031 30.623101 L 44.358334 29.107898 L 45.08888 28.237625 L 45.738254 27.802049 L 46.306456 27.679603 L 46.874658 27.791758 L 47.483447 28.159981 L 48.173406 28.86501 L 48.985124 30.042319 L 49.999771 31.949275 L 51.379691 35.080723 L 55.560036 44.904925 L 56.737026 46.949976 L 57.711087 48.217851 L 58.522805 48.943163 L 59.253351 49.321095 L 59.943311 49.430347 L 60.592685 49.309812 L 61.282645 48.944205 L 62.01319 48.294144 L 62.824908 47.265263 L 63.758383 45.707727 L 64.854202 43.424265 L 66.234122 39.99229 L 68.70986 33.083401 L 70.495639 28.428589 L 71.632043 26.040267 L 72.524932 24.634816 L 73.255478 23.856002 L 73.904852 23.474316 L 74.473055 23.394155 L 75.000671 23.538024 L 75.568873 23.930115 L 76.218247 24.67642 L 76.948793 25.883791 L 77.801096 27.752748 L 78.815743 30.552495 L 80.073906 34.733204 L 81.778512 41.260471 L 88.556354 68.113457 L 90.301547 73.745673 L 91.84381 78.013825 L 93.22373 81.204307 L 94.441306 83.481794 L 95.496539 85.015931 L 96.430014 86.009304 L 97.282317 86.599922 L 98.012863 86.852979 L 98.702823 86.867223 L 99.392783 86.653771 L 100.082743 86.203352 L 100.813289 85.457882 L 101.625006 84.292771 L 102.517895 82.58543 L 103.451371 80.305747 L 104.466018 77.235863 L 105.602422 73.049954 L 106.819998 67.687985 L 108.199918 60.55948 L 109.823353 50.933646 L 112.867294 31.133421 L 114.490729 21.452625 L 115.586548 16.149738 L 116.438851 13.032077 L 117.128811 11.282063 L 117.656427 10.456391 L 118.102872 10.120715 L 118.468145 10.097986 L 118.833418 10.302469 L 119.239277 10.793539 L 119.726307 11.740599 L 120.335095 13.447685 L 121.065641 16.20077 L 121.999116 20.681514 L 123.176107 27.517309 L 124.961885 39.386297 L 129.629261 70.914993 L 131.90207 84.461771 L 134.296637 97.378219 L 137.178234 111.644291 L 142.170297 135.005478 L 150.246887 172.031212 L 152.113837 179.40434 L 153.534343 184.172201 L 154.711333 187.401215 L 155.72598 189.577361 L 156.618869 190.991074 L 157.390001 191.824307 L 158.079961 192.267622 L 158.729335 192.432627 L 159.378709 192.366249 L 160.068669 192.061981 L 160.8398 191.468649 L 161.773276 190.452033 L 162.990852 188.766918 L 165.46659 184.836554 L 167.211783 182.29708 L 168.469945 180.836718 L 169.565764 179.897475 L 170.539825 179.348179 L 171.4733 179.078151 L 172.366189 179.046349 L 173.34025 179.243174 L 174.395483 179.689928 L 175.734817 180.517677 L 180.239849 183.528878 L 181.254496 183.829917 L 182.147386 183.874473 L 182.999689 183.697348 L 183.851992 183.288768 L 184.744882 182.603451 L 185.718943 181.556112 L 186.774176 180.08404 L 187.991752 177.992374 L 189.493429 174.938903 L 191.603895 170.079951 L 195.621897 160.769442 L 197.204746 157.701827 L 198.462908 155.708067 L 199.558727 154.368547 L 200.492202 153.56305 L 201.303919 153.140607 L 202.034465 152.999285 L 202.724425 153.086765 L 203.414385 153.400139 L 204.144931 153.989344 L 204.916063 154.909844 L 205.768366 156.295733 L 206.701841 158.267815 L 207.716488 160.953832 L 208.852893 164.619539 L 210.151641 169.599956 L 211.73449 176.609208 L 216.564209 198.7326 L 217.53827 201.873473 L 218.349988 203.787561 L 218.999362 204.790666 L 219.526978 205.234078 L 219.973423 205.34 L 220.379282 205.219498 L 220.825726 204.849115 L 221.353343 204.095788 L 221.962131 202.81782 L 222.692677 200.745774 L 223.585566 197.507084 L 224.72197 192.474611 L 226.264234 184.536103 L 233.529106 145.724005 L 235.923672 134.908222 L 238.561754 124.040848 L 241.808624 111.641733 L 246.597758 94.317255 L 259.463481 48.951977 L 262.101563 40.410177 L 263.927927 35.202355 L 265.389019 31.659878 L 266.647181 29.16339 L 267.743 27.462057 L 268.717061 26.343417 L 269.60995 25.649679 L 270.421668 25.290521 L 271.192799 25.179399 L 272.004517 25.289267 L 272.85682 25.63228 L 273.830881 26.272809 L 275.007872 27.333325 L 276.550135 29.055608 L 279.472318 32.744441 L 282.394501 36.278873 L 284.951412 39.011095 L 292.256869 46.560122 L 294.773194 49.683563 L 301.510449 58.288678 L 302.890369 59.569435 L 304.026774 60.344318 L 305.000835 60.759921 L 305.893724 60.906211 L 306.705441 60.820425 L 307.517159 60.505735 L 308.328877 59.9436 L 309.18118 59.068846 L 310.074069 57.822506 L 311.04813 56.062093 L 312.103363 53.673472 L 313.280353 50.425341 L 314.619687 46.030774 L 316.243122 39.889655 L 320.99167 21.369468 L 322.006317 18.531826 L 322.818035 16.845711 L 323.507994 15.883845 L 324.076197 15.443141 L 324.563227 15.328101 L 325.009672 15.438923 L 325.496702 15.795478 L 326.064905 16.516891 L 326.714279 17.728533 L 327.48541 19.666111 L 328.418886 22.651335 L 329.595876 27.222435 L 331.219311 34.524039 L 338.240668 67.231265 L 340.513477 76.17752 L 342.826872 84.373695 L 345.180853 91.908516 L 347.534833 98.719998 L 349.767057 104.520179 L 351.796351 109.19518 L 353.622715 112.865396 L 355.286736 115.727635 L 356.828999 117.948573 L 358.249505 119.621096 L 359.629425 120.911381 L 360.968759 121.869043 L 362.348679 122.587703 L 363.890942 123.13304 L 365.960822 123.604132 L 368.680075 124.243628 L 370.019409 124.795815 L 371.155814 125.499623 L 372.211047 126.413678 L 373.225693 127.58608 L 374.24034 129.100529 L 375.295573 131.095711 L 376.350806 133.576963 L 377.446625 136.727162 L 378.623615 140.823306 L 379.841191 145.892409 L 381.139939 152.26559 L 382.601031 160.60067 L 384.346224 171.934083 L 388.729498 201.143406 L 389.744145 206.126161 L 390.555863 209.088079 L 391.205237 210.687303 L 391.732853 211.439006 L 392.138712 211.670213 L 392.503985 211.616925 L 392.869258 211.316522 L 393.315702 210.618833 L 393.843319 209.340891 L 394.492693 207.134986 L 395.30441 203.49938 L 396.319057 197.826233 L 397.698977 188.703329 L 400.458817 168.534983 L 403.340414 148.203658 L 405.856738 132.071516 L 409.265952 111.81608 L 413.770984 84.864461 L 416.855511 64.899152 L 421.238786 36.436728 L 422.659291 28.776435 L 423.75511 24.023569 L 424.647999 21.097919 L 425.378545 19.422093 L 425.987333 18.550966 L 426.109091 18.435325 L 426.109091 18.435325" />
  </g>
</svg>
